<?xml version="1.0" encoding="UTF-8" standalone="no"?>
<!DOCTYPE svg PUBLIC "-//W3C//DTD SVG 1.1//EN" "http://www.w3.org/Graphics/SVG/1.1/DTD/svg11.dtd">
<svg fill="#fff" width="100%" height="100%" viewBox="0 0 2281 278" version="1.1" xmlns="http://www.w3.org/2000/svg" xmlns:xlink="http://www.w3.org/1999/xlink" xml:space="preserve" xmlns:serif="http://www.serif.com/" style="fill-rule:evenodd;clip-rule:evenodd;stroke-linejoin:round;stroke-miterlimit:2;">
    <g id="ArtBoard1" transform="matrix(0.910965,0,0,0.701853,-430.377,-530.534)">
        <rect x="472.441" y="755.906" width="2503.94" height="396.094" style="fill:none;"/>
        <g transform="matrix(1.09774,0,0,1.4248,-194.589,-1874.74)">
            <g transform="matrix(1,0,0,1,100.153,883.407)">
                <rect x="876.299" y="996.966" width="40.958" height="207.758" style="fill-rule:nonzero;"/>
            </g>
            <g transform="matrix(1,0,0,1,-46.8001,316.477)">
                <path d="M1134.06,1563.89L1275.72,1771.65L1229.82,1771.65L1180.85,1699.24L1131.58,1771.65L1084.99,1771.65L1157.4,1665.7L1087.95,1563.89L1134.06,1563.89ZM1222.33,1638.84L1199.26,1605.01L1227.15,1563.89L1273.45,1563.89L1222.33,1638.84Z"/>
            </g>
            <g transform="matrix(1,0,0,1,100.153,883.407)">
                <path d="M1268.96,1156.35L1191.2,1156.35L1172.8,1204.72L1130.06,1204.72L1211.38,996.966L1229.78,996.966C1242.64,996.966 1251.35,1002.9 1255.9,1014.77L1329.81,1204.72L1287.07,1204.72L1268.96,1156.35ZM1191.2,1156.35L1268.96,1156.35L1230.38,1047.12L1230.08,1047.12L1191.2,1156.35Z" style="fill-rule:nonzero;"/>
            </g>
            <g transform="matrix(1,0,0,1,-46.8001,316.477)">
                <path d="M1496.35,1599.51L1496.35,1563.89L1606.76,1563.89C1624.76,1563.89 1639.25,1568.74 1650.24,1578.44C1661.22,1588.13 1666.71,1600.9 1666.71,1616.73L1666.71,1637.5C1666.71,1647.79 1663.79,1656.74 1657.95,1664.36C1652.12,1671.98 1643.66,1677.77 1632.58,1681.72L1632.58,1682.32C1638.91,1686.47 1643.71,1691.22 1646.97,1696.56C1650.24,1701.91 1653.45,1709.33 1656.62,1718.82L1673.24,1771.65L1630.8,1771.65L1615.07,1722.38C1612.49,1713.88 1608.93,1707.55 1604.38,1703.39C1599.83,1699.24 1594.19,1697.16 1587.46,1697.16L1537.3,1697.16L1537.3,1771.65L1496.35,1771.65L1496.35,1661.84L1540.16,1661.84L1540.16,1661.84L1599.04,1661.84C1607.35,1661.84 1613.88,1659.61 1618.63,1655.16C1623.38,1650.71 1625.75,1644.92 1625.75,1637.8L1625.75,1618.51C1625.75,1612.77 1623.97,1608.17 1620.41,1604.7C1616.85,1601.24 1612.1,1599.51 1606.16,1599.51L1540.16,1599.51L1540.16,1599.51L1496.35,1599.51Z"/>
            </g>
            <g transform="matrix(1,0,0,1,-46.8001,316.477)">
                <path d="M1786.02,1629.92L1786.02,1771.65L1745.06,1771.65L1745.06,1629.92L1786.02,1629.92ZM1851.91,1599.21L1679.17,1599.21L1679.17,1563.89L1851.91,1563.89L1851.91,1599.21Z"/>
            </g>
            <g transform="matrix(1,0,0,1,318.261,316.477)">
                <path d="M1786.02,1629.92L1786.02,1771.65L1745.06,1771.65L1745.06,1629.92L1786.02,1629.92ZM1851.91,1599.21L1679.17,1599.21L1679.17,1563.89L1851.91,1563.89L1851.91,1599.21Z"/>
            </g>
            <g transform="matrix(1,0,0,1,100.153,883.407)">
                <path d="M1784.5,1207.1C1762.73,1207.1 1745.72,1201.01 1733.45,1188.85C1721.18,1176.68 1715.05,1159.71 1715.05,1137.94L1755.41,1137.94C1755.41,1148.23 1758.03,1156.3 1763.28,1162.13C1768.52,1167.97 1775.79,1170.89 1785.09,1170.89L1818.04,1170.89C1826.74,1170.89 1833.82,1169.06 1839.26,1165.4C1844.7,1161.74 1847.42,1156.84 1847.42,1150.71L1847.42,1140.62C1847.42,1130.92 1840.3,1124.89 1826.05,1122.51L1771.44,1113.31C1753.63,1110.34 1740.13,1104.65 1730.93,1096.25C1721.73,1087.84 1717.12,1077.1 1717.12,1064.04L1717.12,1047.42C1717.12,1036.93 1719.94,1027.68 1725.58,1019.67C1731.22,1011.66 1739.24,1005.48 1749.62,1001.12C1760.01,996.768 1772.03,994.592 1785.68,994.592L1819.22,994.592C1832.09,994.592 1843.46,997.263 1853.36,1002.61C1863.25,1007.95 1870.92,1015.42 1876.36,1025.01C1881.8,1034.61 1884.52,1045.74 1884.52,1058.4L1844.15,1058.4C1844.15,1050.09 1841.88,1043.41 1837.33,1038.37C1832.78,1033.32 1826.74,1030.8 1819.22,1030.8L1785.68,1030.8C1777.38,1030.8 1770.7,1032.58 1765.65,1036.14C1760.61,1039.7 1758.08,1044.45 1758.08,1050.39L1758.08,1058.4C1758.08,1068.3 1764.91,1074.43 1778.56,1076.81L1832.88,1086.3C1850.88,1089.47 1864.63,1095.06 1874.13,1103.07C1883.63,1111.09 1888.38,1121.42 1888.38,1134.09L1888.38,1153.67C1888.38,1164.16 1885.46,1173.46 1879.62,1181.57C1873.79,1189.69 1865.62,1195.97 1855.14,1200.42C1844.65,1204.87 1832.48,1207.1 1818.63,1207.1L1784.5,1207.1Z" style="fill-rule:nonzero;"/>
            </g>
            <g transform="matrix(1,0,0,1,-83.0058,316.477)">
                <path d="M2551.76,1563.89C2567.59,1563.89 2581.49,1566.86 2593.46,1572.8C2605.43,1578.74 2614.73,1587.14 2621.36,1598.03C2627.99,1608.91 2631.3,1621.47 2631.3,1635.72L2631.3,1693.89C2631.3,1719.42 2624.67,1738.76 2611.41,1751.92C2598.16,1765.08 2578.67,1771.65 2552.94,1771.65L2481.42,1771.65C2481.42,1771.65 2493.59,1771.65 2493.59,1771.65L2493.59,1735.44L2551.76,1735.44C2564.42,1735.44 2574.02,1731.78 2580.55,1724.46C2587.08,1717.14 2590.34,1706.36 2590.34,1692.11L2590.34,1637.5C2590.34,1626.22 2586.68,1617.17 2579.36,1610.34C2572.04,1603.52 2562.44,1600.11 2550.57,1600.11L2493.59,1600.11L2493.59,1563.89L2551.76,1563.89Z"/>
            </g>
            <g transform="matrix(1,0,0,1,63.9471,883.407)">
                <rect x="2516.99" y="996.966" width="40.958" height="207.758" style="fill-rule:nonzero;"/>
            </g>
            <g transform="matrix(-1,0,0,1,5584.42,316.477)">
                <path d="M2834.65,1561.52L2834.65,1597.73L2817.98,1597.73C2806.51,1597.73 2797.26,1601.89 2790.23,1610.2C2783.21,1618.51 2779.7,1629.39 2779.7,1642.84L2779.7,1692.7C2779.7,1706.16 2783.21,1717.04 2790.23,1725.35C2797.26,1733.66 2806.51,1737.82 2817.98,1737.82L2849.45,1737.82C2860.92,1737.82 2870.17,1733.66 2877.2,1725.35C2884.22,1717.04 2887.73,1706.16 2887.73,1692.7L2887.73,1653.54L2928.69,1653.54L2928.69,1694.49C2928.69,1710.32 2925.38,1724.22 2918.75,1736.19C2912.12,1748.16 2902.82,1757.46 2890.85,1764.09C2878.88,1770.71 2865.08,1774.03 2849.45,1774.03L2817.98,1774.03C2802.35,1774.03 2788.55,1770.71 2776.58,1764.09C2764.61,1757.46 2755.31,1748.16 2748.68,1736.19C2742.05,1724.22 2738.74,1710.32 2738.74,1694.49L2738.74,1641.06C2738.74,1625.23 2742.05,1611.33 2748.68,1599.36C2755.31,1587.39 2764.61,1578.09 2776.58,1571.46C2788.55,1564.84 2802.35,1561.52 2817.98,1561.52L2834.65,1561.52Z"/>
            </g>
            <g transform="matrix(1,0,0,1,99.5459,883.407)">
                <path d="M2164.4,1207.1C2149.76,1207.1 2136.89,1203.98 2125.82,1197.75C2114.74,1191.52 2106.13,1182.76 2099.99,1171.48C2093.86,1160.2 2090.79,1147.15 2090.79,1132.31L2090.79,996.966L2131.75,996.966L2131.75,1131.12C2131.75,1142.99 2134.77,1152.59 2140.8,1159.91C2146.84,1167.23 2154.7,1170.89 2164.4,1170.89L2195.86,1170.89C2205.75,1170.89 2213.77,1167.23 2219.9,1159.91C2226.03,1152.59 2229.1,1142.99 2229.1,1131.12L2229.1,996.966L2270.06,996.966L2270.06,1132.31C2270.06,1147.15 2266.99,1160.2 2260.86,1171.48C2254.72,1182.76 2246.02,1191.52 2234.74,1197.75C2223.46,1203.98 2210.5,1207.1 2195.86,1207.1L2164.4,1207.1Z" style="fill-rule:nonzero;"/>
            </g>
            <g transform="matrix(1,0,0,1,333.641,1771.32)">
                <path d="M487.289,109.05L555.849,109.05C567.919,109.05 578.603,111.375 587.903,116.025C597.203,120.675 604.425,127.303 609.569,135.91C614.714,144.517 617.286,154.361 617.286,165.442L617.286,193.044C617.286,204.52 614.615,214.66 609.272,223.465C603.93,232.27 596.461,239.097 586.864,243.944C577.268,248.792 566.138,251.216 553.475,251.216L487.289,251.216L487.289,215.6L552.881,215.6C559.806,215.6 565.445,213.374 569.798,208.922C574.151,204.47 576.328,198.584 576.328,191.263L576.328,167.222C576.328,160.297 574.399,154.806 570.54,150.75C566.682,146.694 561.587,144.666 555.255,144.666L487.289,144.666L487.289,109.05Z" style="fill-rule:nonzero;"/>
            </g>
        </g>
        <g transform="matrix(-4.80076e-17,0.544447,-0.421041,-2.41436e-16,777.102,745.611)">
            <g transform="matrix(1,0,0,1,-2,108.5)">
                <path d="M320,94.907C320,81.16 308.798,70 295,70L245,70C231.202,70 220,81.16 220,94.907L220,145.093C220,158.84 231.202,170 245,170L295,170C308.798,170 320,158.84 320,145.093L320,94.907Z"/>
            </g>
            <g transform="matrix(1,0,0,1,-2,220)">
                <path d="M320,94.907C320,81.16 308.798,70 295,70L245,70C231.202,70 220,81.16 220,94.907L220,145.093C220,158.84 231.202,170 245,170L295,170C308.798,170 320,158.84 320,145.093L320,94.907Z"/>
            </g>
            <g transform="matrix(1,0,0,1,-2,331)">
                <path d="M320,94.907C320,81.16 308.798,70 295,70L245,70C231.202,70 220,81.16 220,94.907L220,145.093C220,158.84 231.202,170 245,170L295,170C308.798,170 320,158.84 320,145.093L320,94.907Z"/>
            </g>
            <g transform="matrix(1,0,0,1,108,108.5)">
                <path d="M320,94.907C320,81.16 308.798,70 295,70L245,70C231.202,70 220,81.16 220,94.907L220,145.093C220,158.84 231.202,170 245,170L295,170C308.798,170 320,158.84 320,145.093L320,94.907Z"/>
            </g>
            <g transform="matrix(1,0,4.93038e-32,1,108,219.5)">
                <path d="M320,94.907C320,81.16 308.798,70 295,70L245,70C231.202,70 220,81.16 220,94.907L220,145.093C220,158.84 231.202,170 245,170L295,170C308.798,170 320,158.84 320,145.093L320,94.907Z"/>
            </g>
            <g transform="matrix(1,0,0,1,108,330.5)">
                <path d="M320,94.907C320,81.16 308.798,70 295,70L245,70C231.202,70 220,81.16 220,94.907L220,145.093C220,158.84 231.202,170 245,170L295,170C308.798,170 320,158.84 320,145.093L320,94.907Z"/>
            </g>
            <g transform="matrix(1,0,0,1,108,441.5)">
                <path d="M320,94.907C320,81.16 308.798,70 295,70L245,70C231.202,70 220,81.16 220,94.907L220,145.093C220,158.84 231.202,170 245,170L295,170C308.798,170 320,158.84 320,145.093L320,94.907Z"/>
            </g>
            <g transform="matrix(1,0,0,1,219.951,108.5)">
                <path d="M320,94.907C320,81.16 308.798,70 295,70L245,70C231.202,70 220,81.16 220,94.907L220,145.093C220,158.84 231.202,170 245,170L295,170C308.798,170 320,158.84 320,145.093L320,94.907Z"/>
            </g>
            <g transform="matrix(1,0,0,1,219.951,219.787)">
                <path d="M320,94.907C320,81.16 308.798,70 295,70L245,70C231.202,70 220,81.16 220,94.907L220,145.093C220,158.84 231.202,170 245,170L295,170C308.798,170 320,158.84 320,145.093L320,94.907Z"/>
            </g>
            <g transform="matrix(1,7.39557e-32,0,1,331,220)">
                <path d="M320,94.907C320,81.16 308.798,70 295,70L245,70C231.202,70 220,81.16 220,94.907L220,145.093C220,158.84 231.202,170 245,170L295,170C308.798,170 320,158.84 320,145.093L320,94.907Z"/>
            </g>
            <g transform="matrix(1,0,0,1,219.951,330.358)">
                <path d="M320,94.907C320,81.16 308.798,70 295,70L245,70C231.202,70 220,81.16 220,94.907L220,145.093C220,158.84 231.202,170 245,170L295,170C308.798,170 320,158.84 320,145.093L320,94.907Z"/>
            </g>
            <g transform="matrix(1,0,0,1,331,108.5)">
                <path d="M320,94.907C320,81.16 308.798,70 295,70L245,70C231.202,70 220,81.16 220,94.907L220,145.093C220,158.84 231.202,170 245,170L295,170C308.798,170 320,158.84 320,145.093L320,94.907Z"/>
            </g>
            <g transform="matrix(1,0,0,1,-113,109.364)">
                <path d="M320,94.907C320,81.16 308.798,70 295,70L245,70C231.202,70 220,81.16 220,94.907L220,145.093C220,158.84 231.202,170 245,170L295,170C308.798,170 320,158.84 320,145.093L320,94.907Z"/>
            </g>
            <g transform="matrix(1,0,0,1,-113,109.364)">
                <path d="M320,94.907C320,81.16 308.798,70 295,70L245,70C231.202,70 220,81.16 220,94.907L220,145.093C220,158.84 231.202,170 245,170L295,170C308.798,170 320,158.84 320,145.093L320,94.907Z"/>
            </g>
            <g transform="matrix(1,2.46519e-32,0,1,-113,220)">
                <path d="M320,94.907C320,81.16 308.798,70 295,70L245,70C231.202,70 220,81.16 220,94.907L220,145.093C220,158.84 231.202,170 245,170L295,170C308.798,170 320,158.84 320,145.093L320,94.907Z"/>
            </g>
        </g>
    </g>
</svg>
