<?xml version="1.0" encoding="UTF-8" standalone="no"?>
<!DOCTYPE svg PUBLIC "-//W3C//DTD SVG 1.1//EN" "http://www.w3.org/Graphics/SVG/1.1/DTD/svg11.dtd">
<svg width="100%" height="100%" viewBox="0 0 1362 961" version="1.1" xmlns="http://www.w3.org/2000/svg" xmlns:xlink="http://www.w3.org/1999/xlink" xml:space="preserve" xmlns:serif="http://www.serif.com/" style="fill-rule:evenodd;clip-rule:evenodd;stroke-linejoin:round;stroke-miterlimit:2;">
    <g id="ArtBoard1" transform="matrix(0.873,0,0,0.829803,-763.016,-450.838)">
        <rect x="874.016" y="543.307" width="1559.06" height="1157.48" style="fill:none;"/>
        <g transform="matrix(4.77283,0,0,5.02127,-2178.52,-8847.93)">
            <g transform="matrix(1,0,0,1,333.641,1771.32)">
                <path d="M487.289,109.05L555.849,109.05C567.919,109.05 578.603,111.375 587.903,116.025C597.203,120.675 604.425,127.303 609.569,135.91C614.714,144.517 617.286,154.361 617.286,165.442L617.286,193.044C617.286,204.52 614.615,214.66 609.272,223.465C603.93,232.27 596.461,239.097 586.864,243.944C577.268,248.792 566.138,251.216 553.475,251.216L487.289,251.216L487.289,215.6L552.881,215.6C559.806,215.6 565.445,213.374 569.798,208.922C574.151,204.47 576.328,198.584 576.328,191.263L576.328,167.222C576.328,160.297 574.399,154.806 570.54,150.75C566.682,146.694 561.587,144.666 555.255,144.666L487.289,144.666L487.289,109.05Z" style="fill:white;fill-rule:nonzero;"/>
            </g>
            <g transform="matrix(-4.37331e-17,0.382122,-0.383553,-1.69453e-16,885.174,1839.1)">
                <g transform="matrix(1,0,0,1,-2,108.5)">
                    <path d="M320,94.907C320,81.16 308.798,70 295,70L245,70C231.202,70 220,81.16 220,94.907L220,145.093C220,158.84 231.202,170 245,170L295,170C308.798,170 320,158.84 320,145.093L320,94.907Z" style="fill:white;"/>
                </g>
                <g transform="matrix(1,0,0,1,-2,220)">
                    <path d="M320,94.907C320,81.16 308.798,70 295,70L245,70C231.202,70 220,81.16 220,94.907L220,145.093C220,158.84 231.202,170 245,170L295,170C308.798,170 320,158.84 320,145.093L320,94.907Z" style="fill:white;"/>
                </g>
                <g transform="matrix(1,0,0,1,-2,331)">
                    <path d="M320,94.907C320,81.16 308.798,70 295,70L245,70C231.202,70 220,81.16 220,94.907L220,145.093C220,158.84 231.202,170 245,170L295,170C308.798,170 320,158.84 320,145.093L320,94.907Z" style="fill:white;"/>
                </g>
                <g transform="matrix(1,0,0,1,108,108.5)">
                    <path d="M320,94.907C320,81.16 308.798,70 295,70L245,70C231.202,70 220,81.16 220,94.907L220,145.093C220,158.84 231.202,170 245,170L295,170C308.798,170 320,158.84 320,145.093L320,94.907Z" style="fill:white;"/>
                </g>
                <g transform="matrix(1,0,4.93038e-32,1,108,219.5)">
                    <path d="M320,94.907C320,81.16 308.798,70 295,70L245,70C231.202,70 220,81.16 220,94.907L220,145.093C220,158.84 231.202,170 245,170L295,170C308.798,170 320,158.84 320,145.093L320,94.907Z" style="fill:white;"/>
                </g>
                <g transform="matrix(1,0,0,1,108,330.5)">
                    <path d="M320,94.907C320,81.16 308.798,70 295,70L245,70C231.202,70 220,81.16 220,94.907L220,145.093C220,158.84 231.202,170 245,170L295,170C308.798,170 320,158.84 320,145.093L320,94.907Z" style="fill:white;"/>
                </g>
                <g transform="matrix(1,0,0,1,108,441.5)">
                    <path d="M320,94.907C320,81.16 308.798,70 295,70L245,70C231.202,70 220,81.16 220,94.907L220,145.093C220,158.84 231.202,170 245,170L295,170C308.798,170 320,158.84 320,145.093L320,94.907Z" style="fill:white;"/>
                </g>
                <g transform="matrix(1,0,0,1,219.951,108.5)">
                    <path d="M320,94.907C320,81.16 308.798,70 295,70L245,70C231.202,70 220,81.16 220,94.907L220,145.093C220,158.84 231.202,170 245,170L295,170C308.798,170 320,158.84 320,145.093L320,94.907Z" style="fill:white;"/>
                </g>
                <g transform="matrix(1,0,0,1,219.951,219.787)">
                    <path d="M320,94.907C320,81.16 308.798,70 295,70L245,70C231.202,70 220,81.16 220,94.907L220,145.093C220,158.84 231.202,170 245,170L295,170C308.798,170 320,158.84 320,145.093L320,94.907Z" style="fill:white;"/>
                </g>
                <g transform="matrix(1,7.39557e-32,0,1,331,220)">
                    <path d="M320,94.907C320,81.16 308.798,70 295,70L245,70C231.202,70 220,81.16 220,94.907L220,145.093C220,158.84 231.202,170 245,170L295,170C308.798,170 320,158.84 320,145.093L320,94.907Z" style="fill:white;"/>
                </g>
                <g transform="matrix(1,0,0,1,219.951,330.358)">
                    <path d="M320,94.907C320,81.16 308.798,70 295,70L245,70C231.202,70 220,81.16 220,94.907L220,145.093C220,158.84 231.202,170 245,170L295,170C308.798,170 320,158.84 320,145.093L320,94.907Z" style="fill:white;"/>
                </g>
                <g transform="matrix(1,0,0,1,331,108.5)">
                    <path d="M320,94.907C320,81.16 308.798,70 295,70L245,70C231.202,70 220,81.16 220,94.907L220,145.093C220,158.84 231.202,170 245,170L295,170C308.798,170 320,158.84 320,145.093L320,94.907Z" style="fill:white;"/>
                </g>
                <g transform="matrix(1,0,0,1,-113,109.364)">
                    <path d="M320,94.907C320,81.16 308.798,70 295,70L245,70C231.202,70 220,81.16 220,94.907L220,145.093C220,158.84 231.202,170 245,170L295,170C308.798,170 320,158.84 320,145.093L320,94.907Z" style="fill:white;"/>
                </g>
                <g transform="matrix(1,0,0,1,-113,109.364)">
                    <path d="M320,94.907C320,81.16 308.798,70 295,70L245,70C231.202,70 220,81.16 220,94.907L220,145.093C220,158.84 231.202,170 245,170L295,170C308.798,170 320,158.84 320,145.093L320,94.907Z" style="fill:white;"/>
                </g>
                <g transform="matrix(1,2.46519e-32,0,1,-113,220)">
                    <path d="M320,94.907C320,81.16 308.798,70 295,70L245,70C231.202,70 220,81.16 220,94.907L220,145.093C220,158.84 231.202,170 245,170L295,170C308.798,170 320,158.84 320,145.093L320,94.907Z" style="fill:white;"/>
                </g>
            </g>
        </g>
    </g>
</svg>
