<?xml version="1.0" encoding="UTF-8" standalone="no"?>
<!DOCTYPE svg PUBLIC "-//W3C//DTD SVG 1.1//EN" "http://www.w3.org/Graphics/SVG/1.1/DTD/svg11.dtd">
<svg width="100%" height="100%" viewBox="0 0 3508 2481" version="1.1" xmlns="http://www.w3.org/2000/svg" xmlns:xlink="http://www.w3.org/1999/xlink" xml:space="preserve" xmlns:serif="http://www.serif.com/" style="fill-rule:evenodd;clip-rule:evenodd;stroke-linecap:round;stroke-linejoin:round;stroke-miterlimit:1.5;">
    <g transform="matrix(1,0,0,1,2321.45,1607.12)">
        <path d="M992.126,448C1046.87,448 1292.07,589.567 1319.44,636.976C1346.82,684.386 1346.82,967.519 1319.44,1014.93C1292.07,1062.34 1046.87,1203.91 992.126,1203.91C937.382,1203.91 692.181,1062.34 664.809,1014.93C637.437,967.519 637.437,684.386 664.809,636.976C692.181,589.567 937.382,448 992.126,448Z" style="fill:rgb(235,235,235);fill-opacity:0;stroke:rgb(85,101,129);stroke-width:4.17px;"/>
    </g>
    <g transform="matrix(1,0,0,1,2025.01,-306.268)">
        <path d="M992.126,448C1046.87,448 1292.07,589.567 1319.44,636.976C1346.82,684.386 1346.82,967.519 1319.44,1014.93C1292.07,1062.34 1046.87,1203.91 992.126,1203.91C937.382,1203.91 692.181,1062.34 664.809,1014.93C637.437,967.519 637.437,684.386 664.809,636.976C692.181,589.567 937.382,448 992.126,448Z" style="fill:rgb(235,235,235);fill-opacity:0;stroke:rgb(85,101,129);stroke-width:8.33px;"/>
    </g>
    <g transform="matrix(1,0,0,1,-354.331,-306.268)">
        <path d="M992.126,448C1046.87,448 1292.07,589.567 1319.44,636.976C1346.82,684.386 1346.82,967.519 1319.44,1014.93C1292.07,1062.34 1046.87,1203.91 992.126,1203.91C937.382,1203.91 692.181,1062.34 664.809,1014.93C637.437,967.519 637.437,684.386 664.809,636.976C692.181,589.567 937.382,448 992.126,448Z" style="fill:rgb(235,235,235);fill-opacity:0;stroke:rgb(85,101,129);stroke-width:8.33px;"/>
    </g>
    <g transform="matrix(1,0,0,1,-442.334,1181.92)">
        <path d="M992.126,448C1046.87,448 1292.07,589.567 1319.44,636.976C1346.82,684.386 1346.82,967.519 1319.44,1014.93C1292.07,1062.34 1046.87,1203.91 992.126,1203.91C937.382,1203.91 692.181,1062.34 664.809,1014.93C637.437,967.519 637.437,684.386 664.809,636.976C692.181,589.567 937.382,448 992.126,448Z" style="fill:rgb(235,235,235);fill-opacity:0;stroke:rgb(85,101,129);stroke-width:16.67px;"/>
    </g>
    <g transform="matrix(1,0,0,1,867.531,709.48)">
        <path d="M992.126,448C1046.87,448 1292.07,589.567 1319.44,636.976C1346.82,684.386 1346.82,967.519 1319.44,1014.93C1292.07,1062.34 1046.87,1203.91 992.126,1203.91C937.382,1203.91 692.181,1062.34 664.809,1014.93C637.437,967.519 637.437,684.386 664.809,636.976C692.181,589.567 937.382,448 992.126,448Z" style="fill:rgb(235,235,235);fill-opacity:0;stroke:rgb(85,101,129);stroke-width:12.5px;"/>
    </g>
    <g transform="matrix(1.10229,-0.161184,0.208836,1.42817,-303.063,40.1622)">
        <path d="M94.488,826.087L1117.84,826.087C1204.96,826.087 1275.59,771.574 1275.59,704.33L1275.59,47.244" style="fill:none;stroke:rgb(85,101,129);stroke-width:6.46px;"/>
    </g>
    <g transform="matrix(-1.04115,0.396267,-0.51342,-1.34896,4157.93,2534.63)">
        <path d="M94.488,826.087L1117.84,826.087C1204.96,826.087 1275.59,771.574 1275.59,704.33L1275.59,47.244" style="fill:none;stroke:rgb(85,101,129);stroke-width:6.46px;"/>
    </g>
</svg>
