<svg width="100%" height="100%" viewBox="0 0 3508 2481" version="1.1" xmlns="http://www.w3.org/2000/svg" xmlns:xlink="http://www.w3.org/1999/xlink" xml:space="preserve" xmlns:serif="http://www.serif.com/" style="fill-rule:evenodd;clip-rule:evenodd;stroke-linecap:round;stroke-miterlimit:9;">
    <rect id="ArtBoard1" x="0" y="0" width="3507.87" height="2480.32" style="fill:none;"/>
    <clipPath id="_clip1">
        <rect id="ArtBoard11" serif:id="ArtBoard1" x="0" y="0" width="3507.87" height="2480.32"/>
    </clipPath>
    <g clip-path="url(#_clip1)">
        <g transform="matrix(-2.45,0,0,1.675,5244.09,-791.339)">
            <path d="M708.661,1417.32L1239.95,1417.32C1337.91,1417.32 1417.32,1301.17 1417.32,1157.88L1417.32,472.441" style="fill:none;stroke:rgb(55,65,81);stroke-width:5.96px;"/>
        </g>
        <g transform="matrix(2.45,0,0,-1.675,-2019.69,3956.69)">
            <path d="M708.661,1417.32L1239.95,1417.32C1337.91,1417.32 1417.32,1301.17 1417.32,1157.88L1417.32,472.441" style="fill:none;stroke:rgb(55,65,81);stroke-width:5.96px;"/>
        </g>
        <g transform="matrix(1,0,0,1,-141.732,-921.26)">
            <circle cx="921.26" cy="1889.76" r="472.441" style="fill:rgb(235,235,235);fill-opacity:0;stroke:rgb(55,65,81);stroke-width:4.17px;stroke-linejoin:round;stroke-miterlimit:1.5;"/>
        </g>
        <g transform="matrix(0.675,0,0,0.675,157.677,-307.087)">
            <circle cx="921.26" cy="1889.76" r="472.441" style="fill:rgb(235,235,235);fill-opacity:0;stroke:rgb(55,65,81);stroke-width:18.52px;stroke-linejoin:round;stroke-miterlimit:1.5;"/>
        </g>
        <g transform="matrix(0.675,0,0,0.675,2401.77,838.583)">
            <circle cx="921.26" cy="1889.76" r="472.441" style="fill:rgb(235,235,235);fill-opacity:0;stroke:rgb(55,65,81);stroke-width:18.52px;stroke-linejoin:round;stroke-miterlimit:1.5;"/>
        </g>
    </g>
</svg>
