<svg viewBox="0 0 80 80" version="1.1" xmlns="http://www.w3.org/2000/svg" xmlns:xlink="http://www.w3.org/1999/xlink">
    <g id="Main/Logos/Bootstrap" stroke="none" stroke-width="1" fill="none" fill-rule="evenodd">
        <g id="Group-7" transform="translate(17.000000, 22.000000)" fill="#FFFFFF">
            <path d="M22.6769238,18.7652637 L18.6689355,18.7652637 L18.6689355,25.0433789 L22.8529687,25.0433789 C25.5882129,25.0433789 27.037002,23.9463281 27.037002,21.884502 C27.037002,19.8225879 25.5475195,18.7652637 22.6769238,18.7652637" id="Fill-1"></path>
            <path d="M23.4758496,27.462041 L15.6358301,27.462041 L15.6358301,8.38977539 L23.4352441,8.38977539 C26.9016504,8.38977539 29.1764355,10.2666797 29.1764355,13.147998 C29.1764355,15.1701855 27.6463477,16.9809082 25.6964941,17.2981055 L25.6964941,17.4038379 C28.3504395,17.694668 30.1377832,19.5318457 30.1377832,22.0695117 C30.1377832,25.4266699 27.6328125,27.462041 23.4758496,27.462041 M40.8269531,12.5358398 C40.0634473,10.0621582 39.9575391,7.02834961 40.0391016,4.68632812 C40.1240039,2.24824219 38.2244238,0 35.6567871,0 L9.34646484,0 C6.77882813,0 4.87924805,2.24824219 4.96415039,4.68632812 C5.04571289,7.02834961 4.93980469,10.0621582 4.17621094,12.5358398 C3.41033203,15.017168 2.11543945,16.5855762 0,16.7871094 L0,19.0722656 C2.11552734,19.2737988 3.41033203,20.842207 4.17621094,23.3235352 C4.93980469,25.7972168 5.04571289,28.8310254 4.96423828,31.1731348 C4.87924805,33.6111328 6.77882813,35.859375 9.34646484,35.859375 L35.6567871,35.859375 C38.2244238,35.859375 40.1240039,33.6111328 40.0391016,31.1731348 C39.9575391,28.8310254 40.0634473,25.7972168 40.8269531,23.3235352 C41.5929199,20.842207 42.8845605,19.2737988 45,19.0722656 L45,16.7871094 C42.8845605,16.5855762 41.5929199,15.017168 40.8269531,12.5358398" id="Fill-3"></path>
            <path d="M26.1433301,13.5576562 C26.1433301,11.7865723 24.8976562,10.8085254 22.704082,10.8085254 L18.6689355,10.8085254 L18.6689355,16.5050684 L22.067666,16.5050684 C24.694541,16.5050684 26.1433301,15.4477441 26.1433301,13.5576562" id="Fill-5"></path>
        </g>
    </g>
</svg>