<svg width="80px" height="80px" viewBox="0 0 512 512" version="1.1" xmlns="http://www.w3.org/2000/svg" xmlns:xlink="http://www.w3.org/1999/xlink" xml:space="preserve" xmlns:serif="http://www.serif.com/" style="fill-rule:evenodd;clip-rule:evenodd;stroke-linejoin:round;stroke-miterlimit:2;">
    <g>
        <path d="M71.357,460.819L30.272,0L481.728,0L440.599,460.746L255.724,512L71.357,460.819ZM124.46,208.59L129.525,265.107L325.4,265.107L318.84,338.406L255.805,355.419L255.805,355.424L255.752,355.438L192.808,338.442L188.785,293.366L132.049,293.366L139.968,382.107L255.74,414.247L256,414.174L256,414.165L371.669,382.107L372.519,372.558L385.799,223.766L387.179,208.59L397.382,94.197L114.281,94.197L119.419,150.715L335.444,150.715L330.3,208.59L124.46,208.59Z" style="fill:white;fill-rule:nonzero;"/>
    </g>
</svg>
