<?xml version="1.0" encoding="UTF-8"?>
<svg width="80px" height="80px" viewBox="0 0 80 80" version="1.1" xmlns="http://www.w3.org/2000/svg" xmlns:xlink="http://www.w3.org/1999/xlink">
    <title>Main/Logos/PHP</title>
    <g id="Main/Logos/PHP" stroke="none" stroke-width="1" fill="none" fill-rule="evenodd">
        <g id="icons8-php-logo" transform="translate(12.000000, 25.000000)" fill="#FFFFFF" fill-rule="nonzero">
            <path d="M28.5,0 C20.7905279,0 13.8000491,1.61425781 8.63720763,4.30932588 C3.47436494,7.00439513 0,10.8869632 0,15.4375 C0,19.9880368 3.47436494,23.8706061 8.63720763,26.5656741 C13.8000491,29.2607422 20.7905279,30.875 28.5,30.875 C36.2094733,30.875 43.1999509,29.2607422 48.3627936,26.5656741 C53.5256351,23.8706061 57,19.9880368 57,15.4375 C57,10.8869632 53.5256351,7.00439513 48.3627936,4.30932588 C43.1999509,1.61425781 36.2094733,0 28.5,0 Z M28.5,2.375 C35.8754889,2.375 42.5412601,3.94751006 47.2634274,6.4152835 C51.985596,8.87841856 54.625,12.1162109 54.625,15.4375 C54.625,18.7587891 51.985596,21.9965826 47.2634274,24.4597165 C42.5412601,26.9274899 35.8754889,28.5 28.5,28.5 C21.1245123,28.5 14.4587399,26.9274899 9.73657256,24.4597165 C5.014404,21.9965826 2.375,18.7587891 2.375,15.4375 C2.375,12.1162109 5.014404,8.87841856 9.73657256,6.4152835 C14.4587399,3.94751006 21.1245123,2.375 28.5,2.375 Z M25.5405279,4.75 L22.5625,19 L25.6796875,19 L27.1826172,11.875 L29.6735837,11.875 C30.4667969,11.875 30.9956061,12.0048828 31.2414554,12.2692868 C31.4826663,12.533692 31.533692,13.0346686 31.3945313,13.7536618 L30.2580569,19 L33.4216306,19 L34.6555179,13.326904 C34.9199219,11.9677734 34.7204587,10.9704587 34.0617679,10.3627936 C33.3891608,9.74584931 32.2062991,9.5 30.4436038,9.5 L27.6650391,9.5 L28.6530759,4.75 L25.5405279,4.75 Z M11.875,9.5 L9.467529,22.5625 L12.6079108,22.5625 L13.2341306,19 L15.1916507,19 C19.2829587,19 21.5095212,18.0537109 22.3398438,14.5422366 C23.0541998,11.5224609 21.2265625,9.5 18.2067868,9.5 L11.875,9.5 Z M36.8125,9.5 L34.405029,22.5625 L37.5454107,22.5625 L38.1716306,19 L40.1291507,19 C44.2204587,19 46.4470212,18.0537109 47.2773437,14.5422366 C47.9916998,11.5224609 46.1640625,9.5 43.1442868,9.5 L36.8125,9.5 Z M14.5747076,11.875 L17.0192868,11.875 C19.0510257,11.875 19.4777835,12.7888181 19.3710938,13.8046875 C19.0974118,16.4255368 17.4645993,16.625 15.7111819,16.625 L13.6748047,16.625 L14.5747076,11.875 Z M39.5122076,11.875 L41.9567868,11.875 C43.9885257,11.875 44.4152835,12.7888181 44.3085937,13.8046875 C44.0349118,16.4255368 42.4020993,16.625 40.6486819,16.625 L38.6123047,16.625 L39.5122076,11.875 Z" id="Shape"></path>
        </g>
    </g>
</svg>