<?xml version="1.0" encoding="UTF-8"?>
<svg viewBox="0 0 80 80" version="1.1" xmlns="http://www.w3.org/2000/svg" xmlns:xlink="http://www.w3.org/1999/xlink">
    <title>Main/Logos/HTML5</title>
    <g id="Main/Logos/HTML5" stroke="none" stroke-width="1" fill="none" fill-rule="evenodd">
        <g id="html5-line" transform="translate(22.000000, 20.000000)" fill="#FFFFFF" fill-rule="nonzero">
            <path d="M0,0 L3.27604984,36.7442547 L17.9784033,40.827688 L32.717305,36.7409322 L36,0 L0,0 L0,0 L0,0 Z M23.5769266,21.1381634 L23.0552838,26.9825565 L18.0215967,28.3414859 L13.0045224,26.9892017 L12.6855561,23.3908629 L8.1602215,23.3908629 L8.791509,30.467928 L18.0448546,33.0263036 L27.2682972,30.467928 L28.5042916,16.6327642 L12.0808491,16.6327642 L11.6688509,12.0177204 L28.9129672,12.0177204 L29.3149977,7.51232118 L6.74148593,7.51232118 L7.95754499,21.1414859 L23.5769266,21.1381634 L23.5769266,21.1381634 Z M29.909737,34.4018459 L18.0614675,37.6845408 L18.0614675,37.7011537 L18.0315644,37.691186 L18.0016613,37.7011537 L18.0016613,37.6845408 L6.15339179,34.4018459 L3.34914629,3.00692201 L32.7139825,3.00692201 L29.909737,34.4018459 L29.909737,34.4018459 Z" id="Shape"></path>
        </g>
    </g>
</svg>