<?xml version="1.0" encoding="UTF-8"?>
<svg width="80px" height="80px" viewBox="0 0 80 80" version="1.1" xmlns="http://www.w3.org/2000/svg" xmlns:xlink="http://www.w3.org/1999/xlink">
    <title>Main/Logos/Gitlab</title>
    <g id="Main/Logos/Gitlab" stroke="none" stroke-width="1" fill="none" fill-rule="evenodd">
        <g id="logo_art" transform="translate(19.852095, 20.796613)" fill="#FFFFFF" fill-rule="nonzero">
            <path d="M40.8787886,21.237389 L38.6956533,14.5138064 C38.6966209,14.5168303 38.6969838,14.5199751 38.6979515,14.522999 C38.6968629,14.5194913 38.6962581,14.5159836 38.6952904,14.5124758 C38.6951695,14.5122339 38.6951695,14.512113 38.6951695,14.5118711 C38.6951695,14.5117501 38.6951695,14.5116292 38.6951695,14.5116292 L34.361315,1.16896986 C34.1242412,0.466094394 33.4719254,-0.00563410996 32.7240543,5.08232892e-05 C31.9740059,0.00404237217 31.3395916,0.466699174 31.1075979,1.17925113 L26.9938835,13.8439519 L14.0137294,13.8439519 L9.89227374,1.17840443 C9.66052199,0.466457262 9.02598667,0.00392141614 8.27605931,5.08232892e-05 C8.27303541,5.08232892e-05 8.27013246,5.08232892e-05 8.26698761,5.08232892e-05 C7.52855107,5.08232892e-05 6.8749047,0.468876382 6.63529081,1.17961399 L2.31329007,14.5102986 L2.31268529,14.511992 C2.31268529,14.512113 2.31268529,14.5122339 2.31268529,14.5123549 C2.31159668,14.5157417 2.31111286,14.5191284 2.31002426,14.5225152 C2.3109919,14.5194913 2.31135477,14.5163464 2.31232242,14.5133225 L0.121203999,21.237389 C-0.208401173,22.252452 0.149265797,23.3555709 1.01144035,23.9827279 L19.9308982,37.7291385 C19.9336802,37.7311947 19.9368251,37.7324043 19.939607,37.7344605 C19.9477111,37.7402664 19.9555732,37.7461933 19.9637982,37.7516363 C19.9560571,37.7464352 19.9487997,37.7407502 19.9411795,37.7354282 C19.9411795,37.7354282 19.9411795,37.7353072 19.9410585,37.7353072 C19.9422681,37.7362749 19.9437195,37.7368796 19.9450501,37.7377263 C19.9461387,37.7384521 19.9472273,37.7389359 19.9483159,37.7396616 C19.9484368,37.7397826 19.9485578,37.7399035 19.9487997,37.7400245 C19.9780711,37.7603451 20.008431,37.7789723 20.0398796,37.7960271 C20.044234,37.7984463 20.0481046,37.8014702 20.052459,37.8037683 C20.05258,37.8037683 20.05258,37.8038893 20.0527009,37.8038893 C20.055362,37.8052198 20.0577811,37.8069132 20.0604421,37.8082437 C20.0624984,37.8092113 20.0646756,37.8098161 20.0666109,37.8107838 C20.0680623,37.8115095 20.0696348,37.8119933 20.0710862,37.8125981 C20.074594,37.8142915 20.0784646,37.8153801 20.0819723,37.8171944 C20.0984223,37.8250566 20.115719,37.8314673 20.1326529,37.8383617 C20.1484981,37.8448934 20.1638595,37.8525136 20.1800676,37.8581985 C20.1807934,37.8584404 20.1813981,37.8588033 20.1821239,37.8590452 C20.1847849,37.8600129 20.187204,37.8613434 20.189986,37.862311 C20.1933728,37.8635206 20.1966386,37.8648511 20.2000254,37.8659397 C20.2013559,37.8663026 20.2026864,37.8665445 20.2040169,37.8669074 C20.2082504,37.8682379 20.2128467,37.8688427 20.2170802,37.8700522 C20.2186526,37.870536 20.2204669,37.870778 20.2221603,37.8712618 C20.2449001,37.8781563 20.2684865,37.8831155 20.2919519,37.8883166 C20.3011446,37.8903728 20.3099744,37.8932758 20.319288,37.8949692 C20.3206185,37.8952111 20.3218281,37.8956949 20.3232796,37.8959368 C20.3263035,37.8965416 20.3290854,37.8976302 20.3322303,37.898114 C20.3371895,37.8989607 20.3420277,37.9005331 20.3471079,37.9012589 C20.3510994,37.9018637 20.3552119,37.9016217 20.3592035,37.9022265 C20.3599292,37.9023475 20.360534,37.9022265 20.3612597,37.9023475 C20.3615017,37.9023475 20.3616226,37.9023475 20.3618645,37.9023475 C20.4064973,37.9087582 20.4517349,37.9132335 20.4978191,37.9132335 C20.498061,37.9132335 20.4983029,37.9132335 20.4986658,37.9132335 L20.4986658,37.9132335 C20.4987868,37.9132335 20.4989077,37.9132335 20.4989077,37.9132335 C20.4989077,37.9132335 20.4990287,37.9132335 20.4990287,37.9132335 C20.4991496,37.9132335 20.4992706,37.9132335 20.4993915,37.9132335 C20.5455967,37.9132335 20.5908343,37.9087582 20.635588,37.9023475 C20.635709,37.9023475 20.6359509,37.9023475 20.6360718,37.9023475 C20.6367976,37.9022265 20.6375233,37.9023475 20.638249,37.9022265 C20.6422406,37.9016217 20.6464741,37.9018637 20.6504656,37.9012589 C20.6555458,37.9004122 20.660384,37.8989607 20.6654642,37.898114 C20.6684881,37.8976302 20.67127,37.8965416 20.6742939,37.8959368 C20.6756245,37.8956949 20.676834,37.8952111 20.6781645,37.8949692 C20.6875991,37.8931548 20.6966708,37.8902519 20.7061054,37.8881956 C20.729208,37.8831155 20.7524315,37.8781563 20.7750503,37.8713827 C20.7766227,37.8708989 20.7781952,37.870778 20.7797676,37.8702941 C20.784243,37.8689636 20.7888393,37.8683588 20.7933147,37.8670283 C20.7946452,37.8665445 20.7960967,37.8664235 20.7974272,37.8660607 C20.8009349,37.8649721 20.8043217,37.8635206 20.8077084,37.862311 C20.8103695,37.8613434 20.8127886,37.8600129 20.8154496,37.8590452 C20.8161754,37.8588033 20.8167801,37.8584404 20.8175059,37.8581985 C20.8346816,37.8521507 20.8508897,37.8441676 20.8677026,37.8372731 C20.883306,37.8307415 20.8992722,37.8249356 20.9145126,37.8176783 C20.9182623,37.8158639 20.9222538,37.8147753 20.9258825,37.812961 C20.927334,37.8122352 20.9290273,37.8117514 20.9304788,37.8110257 C20.9325351,37.810058 20.9347123,37.8094533 20.9367685,37.8083647 C20.9395505,37.8069132 20.9422115,37.8052198 20.9448726,37.8038893 C20.9448726,37.8038893 20.9449935,37.8038893 20.9449935,37.8037683 C20.9494689,37.8014702 20.9534605,37.7982043 20.9579358,37.7957852 C20.9891425,37.7788514 21.0193815,37.7603451 21.0485319,37.7401455 C21.0508301,37.738573 21.0534911,37.7373635 21.0559102,37.7356701 C21.056515,37.7351863 21.0572407,37.7349443 21.0578455,37.7344605 C21.0606275,37.7324043 21.0638933,37.7310738 21.0666753,37.7290175 L39.9890361,23.9823651 C40.8507268,23.3555709 41.2083938,22.252452 40.8787886,21.237389 Z M32.7360289,2.41892944 L36.4469598,13.8439519 L29.025098,13.8439519 L32.7360289,2.41892944 Z M35.7970631,15.7758615 L34.2828146,17.7161172 L23.1144608,32.0260618 L28.3974572,15.7758615 L35.7970631,15.7758615 Z M17.8857737,32.0270294 L5.21006595,15.7758615 L5.21006595,15.7758615 L12.6101557,15.7758615 L17.8857737,32.0270294 Z M8.26432658,2.41880849 L11.982152,13.8439519 L4.56029017,13.8439519 L8.26432658,2.41880849 Z M2.14745936,22.420097 C1.96409002,22.2866825 1.88812964,22.0511812 1.95840509,21.8349118 L3.58719894,16.836404 L15.5219301,32.1375833 L2.14745936,22.420097 Z M19.9314034,37.7371694 C19.9261699,37.7329489 19.9211053,37.7283908 19.9160407,37.7240015 C19.9150278,37.7231574 19.9140149,37.7219756 19.9128332,37.7211315 C19.902704,37.7126905 19.8927436,37.7040807 19.882952,37.695302 C19.8637065,37.6785889 19.8447987,37.661538 19.8267349,37.6436431 C19.8282543,37.6449937 19.8299425,37.6461754 19.8314619,37.647526 C19.8334877,37.649383 19.8356824,37.6509024 19.8377082,37.6527594 C19.876368,37.689731 19.9170537,37.7245079 19.9595963,37.7565837 C19.9601028,37.7569214 19.9604404,37.7574278 19.9609469,37.7577655 C19.9629727,37.7592848 19.9646609,37.7611419 19.9666868,37.7628301 C19.9550382,37.7543891 19.9428831,37.7462857 19.9314034,37.7371694 Z M20.4993915,33.8212911 L17.3950551,24.2586286 L14.6413702,15.7758615 L26.3660007,15.7758615 L20.4993915,33.8212911 Z M21.1627501,37.6951345 C21.1526209,37.7039132 21.1428293,37.7126918 21.1325313,37.7211328 C21.1313495,37.7221457 21.1301678,37.7233275 21.1289861,37.7243404 C21.1237526,37.7285609 21.1188568,37.733119 21.1137922,37.7373395 C21.1026501,37.746287 21.0904951,37.7543904 21.0788465,37.7630002 C21.0808723,37.7614808 21.0825605,37.759455 21.0847552,37.7581044 C21.0850928,37.7577668 21.0854305,37.7574291 21.0857681,37.7570915 C21.1283108,37.7250157 21.1688276,37.6905764 21.2071497,37.6536048 C21.2086691,37.6520854 21.2105261,37.6509037 21.2120455,37.6495531 C21.2140714,37.6476961 21.216266,37.6461767 21.218123,37.6443197 C21.2002281,37.6617081 21.1814891,37.6785902 21.1627501,37.6951345 Z M38.8530171,22.4197342 L25.4804817,32.1345594 L37.4192044,16.8376135 L39.0414666,21.8339441 C39.111863,22.0511812 39.0360236,22.2866825 38.8530171,22.4197342 Z" id="Shape"></path>
        </g>
    </g>
</svg>