<?xml version="1.0" encoding="UTF-8"?>
<svg width="80px" height="80px" viewBox="0 0 80 80" version="1.1" xmlns="http://www.w3.org/2000/svg" xmlns:xlink="http://www.w3.org/1999/xlink">
    <title>Main/Logos/Tailwind CSS</title>
    <g id="Main/Logos/Tailwind-CSS" stroke="none" stroke-width="1" fill="none" fill-rule="evenodd">
        <g id="tailwindcss" transform="translate(17.000000, 26.000000)" fill="#FFFFFF" fill-rule="nonzero">
            <path d="M23.5,0 C17.2333945,0 13.3166055,3.13339453 11.75,9.4 C14.1,6.26660547 16.8416055,5.09160547 19.975,5.875 C21.7626523,6.32186719 23.0404648,7.61895703 24.4548711,9.05447656 C26.7589727,11.3932773 29.4254883,14.1 35.25,14.1 C41.5166055,14.1 45.4333945,10.9666055 47,4.7 C44.65,7.83339453 41.9083945,9.00839453 38.775,8.225 C36.9873477,7.77813281 35.7095352,6.48104297 34.2951289,5.04552344 C31.9910273,2.70672266 29.3245117,0 23.5,0 Z M11.75,14.1 C5.48339453,14.1 1.56660547,17.2333945 0,23.5 C2.35,20.3666055 5.09160547,19.1916055 8.225,19.975 C10.0126523,20.4218672 11.2904648,21.718957 12.7048711,23.1544766 C15.0089727,25.4932773 17.6754883,28.2 23.5,28.2 C29.7666055,28.2 33.6833945,25.0666055 35.25,18.8 C32.9,21.9333945 30.1583945,23.1083945 27.025,22.325 C25.2373477,21.8781328 23.9595352,20.581043 22.5451289,19.1455234 C20.2410273,16.8067227 17.5745117,14.1 11.75,14.1 Z" id="Shape"></path>
        </g>
    </g>
</svg>