<?xml version="1.0" encoding="UTF-8" standalone="no"?>
<!DOCTYPE svg PUBLIC "-//W3C//DTD SVG 1.1//EN" "http://www.w3.org/Graphics/SVG/1.1/DTD/svg11.dtd">
<svg width="100%" height="100%" viewBox="0 0 800 800" version="1.1" xmlns="http://www.w3.org/2000/svg" xmlns:xlink="http://www.w3.org/1999/xlink" xml:space="preserve" xmlns:serif="http://www.serif.com/" style="fill-rule:evenodd;clip-rule:evenodd;stroke-linejoin:round;stroke-miterlimit:2;">
    <path d="M593.5,73.233L593.5,75.433L598.7,75.433L598.7,90.1L601.1,90.1L601.1,75.433L606.3,75.433L606.3,73.233L593.5,73.233ZM623.5,73.233L617.667,85L611.933,73.233L609.033,73.233L609.033,90.1L611.267,90.1L611.267,76.667L617,88.333L618.5,88.333L624.233,76.667L624.233,90.133L626.433,90.133L626.433,73.267L623.5,73.233ZM481.6,106.567C474.8,116.9 467.467,128.567 459.6,141.9L458.267,143.967C443.465,168.992 429.404,194.447 416.1,220.3C409.867,232.3 403.433,245.033 396.867,258.5L472.433,250.167C494.433,240.1 504.267,230.9 513.833,217.633C516.439,213.867 518.995,210.067 521.5,206.233C529.167,194.133 536.833,180.8 543.6,167.567C550.167,154.7 555.933,142 560.433,130.567C563.2,123.233 565.433,116.5 567.033,110.567C568.433,105.3 569.5,100.333 570.367,95.567C540.9,100.567 504.867,105.4 481.433,106.567L481.6,106.567ZM396.467,259.333L393.9,264.667C391.3,270 388.667,275.333 386.033,280.933C383.167,286.933 380.3,293.067 377.367,299.333L372.967,308.9C356.237,345.183 340.377,381.86 325.4,418.9C319.967,432.133 314.5,445.8 308.967,459.9C303.967,472.567 299.067,485.4 293.967,498.7L293.3,500.7C288.3,513.9 283.3,527.433 278.2,541.367L277.867,542.267L301.867,539.6C301.395,539.58 300.926,539.513 300.467,539.4C329.233,535.867 367.467,514.4 392.133,487.833C403.533,475.6 413.867,461.167 423.467,444.3C430.567,431.733 437.233,417.8 443.6,402.367C449.2,388.867 454.533,374.267 459.6,358.433C453.067,361.933 445.5,364.433 437.167,366.267C434.169,366.97 431.129,367.482 428.067,367.8C454.933,357.467 471.867,337.633 484.167,313.133C474.41,319.885 463.46,324.727 451.9,327.4C449.9,327.8 448.033,328.133 446.1,328.4L444.667,328.6L444.733,328.6C454,324.667 461.867,320.333 468.667,315.167C477.121,308.79 484.321,300.901 489.9,291.9L492,288.433L494.567,283.3C499.181,274.096 503.265,264.636 506.8,254.967L507.8,252.033C509.571,247.005 510.941,241.844 511.9,236.6C510.914,237.403 509.866,238.127 508.767,238.767C500.667,243.6 486.767,248 475.567,250.1L497.667,247.633L475.533,250.067L474.967,250.067L471.633,250.633C471.833,250.533 471.967,250.433 472.2,250.367L396.7,258.7L396.267,259.433L396.467,259.333ZM275.667,548.333C271.767,559.1 267.8,570.133 263.833,581.4L263.667,581.9C263.133,583.433 262.6,585.033 262,586.633C259.333,594.2 257,601.033 251.667,616.633C260.467,620.633 267.5,631.133 274.167,643.067C273.533,630.456 267.948,618.591 258.633,610.067C301.733,612.067 338.967,601.067 358.3,569.5C359.967,566.7 361.5,563.733 362.967,560.567C354.3,571.667 343.3,576.367 322.967,575.233C322.967,575.233 322.833,575.233 322.8,575.3L322.933,575.233C352.933,561.767 368.067,548.9 381.4,527.467C384.533,522.367 387.6,516.8 390.733,510.7C364.467,537.7 334,545.367 301.933,539.533L277.933,542.133C277.158,544.155 276.414,546.189 275.7,548.233L275.667,548.333ZM514,3.733C501.467,11.133 480.667,32.067 455.733,62.5L478.6,105.633C494.6,82.733 510.933,62.067 527.333,44.433L529.267,42.367C528.6,43.033 527.933,43.7 527.367,44.433C522.033,50.3 505.9,69.1 481.533,106.533C504.967,105.367 541,100.533 570.4,95.533C579.133,46.533 561.8,24.133 561.8,24.133C561.8,24.133 539.8,-11.533 513.933,3.8L514,3.733ZM411.2,217.133C424.893,191.558 439.412,166.434 454.733,141.8L456.067,139.667C463.533,127.933 471.067,116.567 478.633,105.667L455.8,62.567L450.567,68.967C444,77.133 437.133,85.967 430.133,95.3C406.258,127.274 383.835,160.307 362.933,194.3L362.2,195.567L391.967,254.333C398.3,241.733 404.633,229.267 411.133,217.067L411.2,217.133ZM286.867,494.467C292.133,480.933 297.5,467.467 302.967,453.633C308.167,440.5 313.633,427.3 319.1,413.967C336.009,373.542 353.791,333.488 372.433,293.833L379.267,279.7C383.267,271.6 387.167,263.533 391.267,255.567C391.407,255.086 391.633,254.634 391.933,254.233L362.1,195.467L360.633,197.8C353.619,209.283 346.763,220.862 340.067,232.533C327.247,254.826 315.108,277.503 303.667,300.533L300.533,306.967C284.242,340.278 270.232,374.657 258.6,409.867C251.588,431.716 245.801,453.939 241.267,476.433L271.133,535.433C275.033,524.867 279.133,514.167 283.267,503.333L286.867,494.467ZM241,478.6C237.201,497.215 234.596,516.053 233.2,535C233.2,535.667 233.067,536.333 233.033,537C223.7,522 198.7,507.4 198.833,507.533C216.733,533.467 230.3,559.2 232.333,584.533C222.667,586.467 209.533,583.633 194.333,578.033C210.167,592.567 222,596.567 226.667,597.633C212.2,598.633 197,608.567 181.8,619.967C204.067,610.967 222.133,607.3 235,610.3C214.667,668.3 194,732.133 173.567,799.967C179.324,798.311 183.884,793.876 185.7,788.167C189.367,775.9 213.7,695.3 251.633,589.333L254.867,580.333L255.8,577.733C259.8,566.667 264,555.333 268.267,543.733L271.267,535.833L271.267,535.7L241.333,476.667C241.233,477.333 241,478 240.933,478.667L241,478.6Z" style="fill:white;fill-rule:nonzero;"/>
</svg>
