<?xml version="1.0" encoding="UTF-8"?>
<svg width="80px" height="80px" viewBox="0 0 80 80" version="1.1" xmlns="http://www.w3.org/2000/svg" xmlns:xlink="http://www.w3.org/1999/xlink">
    <title>Main/Logos/JavaScript</title>
    <g id="Main/Logos/JavaScript" stroke="none" stroke-width="1" fill="none" fill-rule="evenodd">
        <g id="javascript_logo_icon_145155" transform="translate(21.000000, 21.000000)" fill="#FFFFFF" fill-rule="nonzero">
            <path d="M0,0 L38,0 L38,38 L0,38 L0,0 Z M34.88875,28.939375 C34.610875,27.200875 33.478,25.747375 30.1328125,24.3876875 C28.97025,23.8438125 27.671125,23.46025 27.2875625,22.5815 C27.1450625,22.061375 27.120125,21.7775625 27.21275,21.467625 C27.4538125,20.4404375 28.6603125,20.137625 29.6126875,20.422625 C30.231375,20.6138125 30.8001875,21.0840625 31.1588125,21.84525 C32.7975625,20.7753125 32.7975625,20.7753125 33.936375,20.064 C33.5100625,19.4025625 33.299875,19.111625 33.0089375,18.83375 C32.012625,17.7139375 30.6838125,17.145125 28.5249375,17.195 L27.405125,17.3375 C26.3351875,17.5975625 25.315125,18.166375 24.6964375,18.9275625 C22.8961875,20.968875 23.4163125,24.531375 25.5989375,26.0098125 C27.7578125,27.623625 30.91775,27.9763125 31.32625,29.4986875 C31.703875,31.35475 29.9475625,31.9485 28.2090625,31.7311875 C26.9289375,31.4461875 26.217625,30.80375 25.4315,29.61625 L22.536375,31.2799375 C22.864125,32.041125 23.2476875,32.368875 23.8165,33.03625 C26.569125,35.8138125 33.459,35.6713125 34.6951875,31.4461875 C34.7379375,31.3036875 35.0728125,30.326375 34.81275,28.8360625 L34.88875,28.939375 Z M20.6636875,17.46575 L17.107125,17.46575 C17.107125,20.5330625 17.088125,23.5825625 17.088125,26.657 C17.088125,28.6056875 17.1866875,30.3988125 16.872,30.9498125 C16.3459375,32.03875 15.0040625,31.9021875 14.3913125,31.711 C13.7666875,31.40225 13.444875,30.97475 13.0803125,30.3560625 C12.974625,30.188625 12.901,30.0473125 12.8760625,30.0473125 L9.9880625,31.8285625 C10.4701875,32.824875 11.1755625,33.684625 12.0851875,34.2285 C13.440125,35.038375 15.2581875,35.2984375 17.1629375,34.872125 C18.4003125,34.5135 19.47025,33.77725 20.026,32.639625 C20.835875,31.167125 20.6625,29.362125 20.6565625,27.338625 C20.6755625,24.084875 20.6565625,20.8323125 20.6565625,17.553625 L20.6636875,17.46575 Z" id="Shape"></path>
        </g>
    </g>
</svg>