<?xml version="1.0" encoding="UTF-8"?>
<svg width="80px" height="80px" viewBox="0 0 80 80" version="1.1" xmlns="http://www.w3.org/2000/svg" xmlns:xlink="http://www.w3.org/1999/xlink">
    <title>Main/Logos/GitHub</title>
    <g id="Main/Logos/GitHub" stroke="none" stroke-width="1" fill="none" fill-rule="evenodd">
        <g id="github-icon" transform="translate(16.000000, 16.000000)" fill="#FFFFFF" fill-rule="nonzero">
            <path d="M0,23.999976 C0,17.3749826 2.34374766,11.7187383 7.03129097,7.03124297 C11.7187383,2.34374766 17.3749826,0 24.000024,0 C30.6249694,0 36.2812137,2.34374766 40.968757,7.03124297 C45.6562043,11.7187383 48,17.3749826 48,23.999976 C48,30.6249694 45.6562523,36.2812137 40.968757,40.968709 C36.2812617,45.6562043 30.6250174,48 24.000024,48 C17.3749826,48 11.7187383,45.6562523 7.03129097,40.968709 C2.34374766,36.2812617 0,30.6249214 0,23.999976 Z M2.62499737,23.999976 C2.62499737,29.8750181 4.71874528,34.9062151 8.90624109,39.0937589 C13.0937369,43.2812067 18.1249819,45.3750026 24.000024,45.3750026 C29.8750181,45.3750026 34.9062631,43.2812547 39.0937589,39.0937589 C43.2812547,34.9062631 45.3750026,29.8750181 45.3750026,23.999976 C45.3750026,18.1249819 43.2813027,13.0937369 39.0937589,8.90624109 C34.9062631,4.71874528 29.8749701,2.62499737 24.000024,2.62499737 C18.1249819,2.62499737 13.0937849,4.71874528 8.90624109,8.90624109 C4.71874528,13.0937369 2.62499737,18.1249819 2.62499737,23.999976 Z M9.37503863,29.1562208 C9.25003875,29.031221 9.25003875,28.9062211 9.37503863,28.7812212 C9.62499037,28.5312215 9.93753806,28.4374716 10.3124897,28.4999715 C10.6874893,28.5624714 10.9062391,28.6249714 10.968739,28.6874713 C11.4062386,28.8749711 11.8906371,29.2968217 12.4218386,29.953119 C12.95304,30.6093684 13.3749386,31.0624689 13.6874863,31.3124687 C15.1874848,32.5624674 16.7186853,32.6562173 18.2811837,31.5937184 C18.4061836,31.1562188 18.6093324,30.7812192 18.8905341,30.4686715 C19.1717358,30.1561718 19.4374326,29.9374701 19.6874323,29.8124222 C19.9374801,29.6874223 20.3749796,29.4999225 20.999979,29.2499227 C18.9374331,29.0624229 17.2655837,28.7030243 15.984335,28.1717748 C14.7030863,27.6405254 13.6874383,26.968675 12.9374391,26.1561758 C11.9374401,25.031177 11.3280417,23.5624284 11.1092919,21.7499302 C10.8904941,19.9374321 11.031143,18.2811837 11.5311905,16.7811852 C11.9061901,15.8436862 12.4374396,14.999985 13.1248909,14.2499377 C12.6248914,12.6874393 12.7186413,10.9061911 13.4061406,8.90614509 C15.4061386,9.03119297 17.2186368,9.71869228 18.8436351,10.968691 C21.968632,10.1561918 25.2186288,10.1249419 28.5935774,10.8749411 C29.031077,10.5624414 29.7029753,10.1718408 30.6091764,9.70304329 C31.5154255,9.23429376 32.6560733,8.96864502 34.031072,8.90614509 C34.2810717,9.5936444 34.4529705,10.4061451 34.5467204,11.3436426 C34.6404703,12.2811417 34.5936194,13.1561408 34.4061196,13.96864 C35.8435701,15.4686385 36.5935694,17.4686365 36.6560693,19.968634 C36.6560693,21.968632 36.3123677,23.6248804 35.6248684,24.9373791 C34.9373691,26.2498777 33.7186203,27.3436266 31.968622,28.2185778 C30.7811232,28.7811252 29.2186248,29.1248269 27.2811267,29.2498267 C28.1561738,29.6873263 28.7967742,30.1404748 29.2030238,30.6092244 C29.6093214,31.0779739 29.8749221,31.8123242 29.99997,32.8123232 L29.99997,35.7655172 L30.0936719,38.6248654 C30.2811717,38.9374131 30.4999695,39.2030138 30.7499692,39.4218116 C30.999969,39.6405614 31.2187188,39.7968112 31.4062186,39.8905611 C31.5936704,39.984311 31.6562183,40.1249599 31.5936704,40.3124597 C31.5311705,40.4999595 31.2811707,40.5937094 30.8437192,40.5937094 C29.7811722,40.5937094 28.9374711,40.2187098 28.3124717,39.4686625 C28.1249719,39.1561628 28.031222,38.7812112 28.031222,38.3436637 L28.031222,33.8436682 C28.031222,33.3436687 27.9062221,32.98427 27.6562223,32.7655202 C27.4062226,32.5467224 27.1562228,32.4061216 26.9062231,32.3436216 L26.9062231,38.2498657 C26.9062231,39.3123647 27.031223,39.999864 27.2812227,40.3123637 C27.5312225,40.6248634 27.6874723,40.9374111 27.7500203,41.2498627 C27.8125202,41.3123627 27.7656212,41.3592136 27.6093714,41.3904636 C27.4531695,41.4216656 27.1875208,41.3748626 26.8124732,41.2498627 C25.999974,41.0623629 25.4374746,40.6404643 25.1249749,39.984215 C24.8124752,39.3279657 24.6562253,38.6248174 24.6562253,37.8748181 L24.6562253,32.0624679 L23.4374766,32.0624679 L23.4374766,37.8749621 C23.4374766,38.6249614 23.2811787,39.3437587 22.968679,40.03121 C22.5312275,40.9062571 21.7186803,41.3749586 20.5312295,41.4374586 C20.3437297,41.3749586 20.2499797,41.3124587 20.2499797,41.2500068 C20.3124797,41.1874588 20.4999795,40.8750071 20.8124792,40.3125077 C20.8749791,40.1875078 20.953128,39.9375081 21.046878,39.5625084 C21.1406759,39.1875088 21.1875268,38.7500093 21.1875268,38.2500098 L21.1875268,32.3437177 C20.9375271,32.4062176 20.7031283,32.5468184 20.4843785,32.7656162 C20.2656287,32.984414 20.1562298,33.3437647 20.1562298,33.8437642 L20.1562298,38.3437597 C20.1562298,38.7812112 20.0624799,39.1562588 19.8749801,39.4687585 C19.3124807,40.2187578 18.4687315,40.5938054 17.3437807,40.5938054 C16.9062811,40.5938054 16.6562813,40.5000555 16.5937814,40.3125557 C16.5312335,40.1875558 16.5468825,40.0781569 16.6406804,39.984407 C16.7344783,39.8906571 16.8750791,39.7812582 17.0625789,39.6562583 C17.2500788,39.5312585 17.3750786,39.4374606 17.4375786,39.3750086 C17.6875783,39.1875088 17.8750301,38.9375091 18.000078,38.6250094 C18.1875778,38.3750096 18.2344288,37.7187603 18.1406789,36.6562613 C18.046929,35.5937624 18.03128,34.9062631 18.0937799,34.5937634 C16.4687335,35.1562628 14.8125332,34.8749651 13.1249869,33.7500143 C12.6249874,33.2500148 12.1249879,32.5312175 11.6249884,31.5937664 C11.2499887,30.9062191 10.4999895,30.0937199 9.37503863,29.1562208 Z" id="Shape"></path>
        </g>
    </g>
</svg>