<?xml version="1.0" encoding="UTF-8"?>
<svg width="80px" height="80px" viewBox="0 0 80 80" version="1.1" xmlns="http://www.w3.org/2000/svg" xmlns:xlink="http://www.w3.org/1999/xlink">
    <title>Main/Logos/MySQL</title>
    <g id="Main/Logos/MySQL" stroke="none" stroke-width="1" fill="none" fill-rule="evenodd">
        <g id="logo-mysql" transform="translate(7.232784, 17.934311)" fill="#FFFFFF">
            <path d="M44.4323531,4.4770241 C44.1252001,4.4770241 43.9085683,4.51416099 43.6900022,4.56793211 L43.6900022,4.60429531 L43.7252049,4.60429531 C43.8714314,4.89326673 44.1252001,5.09403803 44.3046951,5.34703309 C44.4505347,5.63677819 44.5774191,5.9257496 44.7220982,6.21510786 C44.739893,6.19769994 44.7573009,6.17874466 44.7573009,6.17874466 C45.012617,5.99847601 45.1391145,5.70873091 45.1391145,5.273533 C45.0296381,5.14626178 45.012617,5.02053794 44.9213222,4.89326673 C44.8130062,4.71261124 44.5774191,4.62209007 44.4323531,4.4770241" id="Fill-3"></path>
            <path d="M15.627667,40.2154768 L13.1193796,40.2154768 C13.0311795,35.9822584 12.786695,32.0016481 12.3870866,28.2728724 L12.3650366,28.2728724 L8.54651336,40.2154768 L6.63667149,40.2154768 L2.84135883,28.2728724 L2.81892196,28.2728724 C2.5376874,31.8538742 2.36051349,35.8344845 2.28662655,40.2154768 L0,40.2154768 C0.14777387,34.8874938 0.517595386,29.8929692 1.10946455,25.2307423 L4.21774477,25.2307423 L7.83627036,36.2410561 L7.85870723,36.2410561 L11.4992829,25.2307423 L14.4733287,25.2307423 C15.1247716,30.6910254 15.5092931,35.6870975 15.627667,40.2154768" id="Fill-4"></path>
            <path d="M26.5049069,29.1599024 C25.4836425,34.7014226 24.1366566,38.7284539 22.4643361,41.2406097 C21.1614502,43.17637 19.7343879,44.1442502 18.1800544,44.1442502 C17.765746,44.1442502 17.2551138,44.0193 16.6485446,43.7713339 L16.6485446,42.4355665 C16.944866,42.4788928 17.2922507,42.5021034 17.6922459,42.5021034 C18.4171889,42.5021034 19.0013212,42.3017189 19.4461902,41.9017237 C19.9784856,41.414302 20.2446333,40.8665329 20.2446333,40.2595769 C20.2446333,39.8448816 20.0368988,38.9942148 19.6233641,37.7071895 L16.8705922,29.1599024 L19.3347795,29.1599024 L21.3099978,35.5524763 C21.7540931,37.0039097 21.9390039,38.0170504 21.8651169,38.5946064 C22.9455683,35.7087607 23.7002982,32.5637304 24.1296934,29.1599024 L26.5049069,29.1599024" id="Fill-5"></path>
            <polyline id="Fill-6" points="59.8909699 40.2154768 52.7657162 40.2154768 52.7657162 25.2307423 55.1633666 25.2307423 55.1633666 38.3721719 59.8909699 38.3721719 59.8909699 40.2154768"></polyline>
            <path d="M41.9774501,37.2178336 C41.370494,36.2410561 41.0664358,34.6735699 41.0664358,32.5122803 C41.0664358,28.7390177 42.2138109,26.8512259 44.5074006,26.8512259 C45.7066126,26.8512259 46.5866795,27.3026712 47.1495355,28.2047881 C47.7557178,29.1819525 48.0597761,30.7358992 48.0597761,32.867015 C48.0597761,36.6704513 46.912401,38.5729432 44.6188113,38.5729432 C43.4199861,38.5729432 42.5395323,38.1218847 41.9774501,37.2178336 M50.9011349,40.5767878 L48.1468157,39.2185835 C48.3920739,39.0174253 48.6249531,38.8004067 48.8357823,38.5493458 C50.0052075,37.1745072 50.5905003,35.1397152 50.5905003,32.4457434 C50.5905003,27.4883556 48.6442953,25.0083078 44.752272,25.0083078 C42.8432038,25.0083078 41.3554072,25.636927 40.2900427,26.8960996 C39.1202307,28.2724855 38.5360984,30.2995407 38.5360984,32.9784257 C38.5360984,35.6124369 39.0536938,37.5447156 40.0896582,38.7721671 C41.0370357,39.8816317 42.4652586,40.4371377 44.3747136,40.4371377 C45.0876645,40.4371377 45.7418153,40.3493244 46.3363924,40.1736978 L49.9231969,42.2611005 L50.9011349,40.5767878" id="Fill-7"></path>
            <path d="M37.4912365,36.061948 C37.4912365,37.3327259 37.0243175,38.3760403 36.0935742,39.1922782 C35.1620573,40.0050345 33.9106215,40.4123797 32.3435222,40.4123797 C30.8777756,40.4123797 29.4572896,39.9435265 28.0812905,39.0131701 L28.7249966,37.7261448 C29.9091217,38.3180139 30.9806757,38.6135617 31.9427532,38.6135617 C32.845257,38.6135617 33.5516316,38.4127904 34.0626506,38.0158899 C34.5725092,37.6162815 34.8781148,37.0588413 34.8781148,36.3516931 C34.8781148,35.4619551 34.2576193,34.7014226 33.1191416,34.0635191 C32.0680902,33.4867368 29.967535,32.2824958 29.967535,32.2824958 C28.8294441,31.4523316 28.2588513,30.5614332 28.2588513,29.0937524 C28.2588513,27.8798403 28.6843781,26.8988075 29.5342713,26.1522013 C30.3860987,25.4044346 31.4851185,25.0303578 32.8309438,25.0303578 C34.2220298,25.0303578 35.4870051,25.4017267 36.6262565,26.1413697 L36.04754,27.4272345 C35.0726966,27.0140866 34.1113928,26.806739 33.1636285,26.806739 C32.3945854,26.806739 31.8019425,26.9912629 31.3887947,27.3626318 C30.9733257,27.7309059 30.7164622,28.2047881 30.7164622,28.7823441 C30.7164622,29.669761 31.3504972,30.4395777 32.5210829,31.0898601 C33.5852869,31.6670293 35.7372922,32.8944808 35.7372922,32.8944808 C36.9078779,33.7230976 37.4912365,34.6066461 37.4912365,36.061948" id="Fill-8"></path>
            <path d="M62.8998316,20.2114596 C61.4507192,20.1750964 60.3284889,20.3197756 59.3873009,20.7182234 C59.1157374,20.8269262 58.6817,20.8269262 58.6445631,21.1708293 C58.7904027,21.3155084 58.8078106,21.5507087 58.9354687,21.7507063 C59.1521006,22.112791 59.5315931,22.6005995 59.8762699,22.8551419 C60.2565362,23.144887 60.6368024,23.4334716 61.0356371,23.6868535 C61.741238,24.1232119 62.5381338,24.3754333 63.2251662,24.8102444 C63.6247746,25.0636263 64.0216751,25.3889609 64.4212835,25.6612981 C64.6197337,25.806364 64.7454576,26.0419512 65,26.1313118 L65,26.076767 C64.8723419,25.9142931 64.8367524,25.678706 64.7106417,25.49689 C64.5299863,25.3170082 64.3485571,25.1529869 64.1671279,24.9727182 C63.6417957,24.2667305 62.9891922,23.6516508 62.2847519,23.144887 C61.7048748,22.7452786 60.4368048,22.2021516 60.2023782,21.5344613 C60.2023782,21.5344613 60.1834229,21.5151192 60.1656281,21.4973244 C60.564076,21.4605744 61.0356371,21.3155084 61.4155166,21.2056451 C62.0302094,21.0431712 62.591518,21.0799213 63.2251662,20.9174474 C63.5152981,20.8443341 63.8050432,20.7534261 64.0959489,20.6644523 L64.0959489,20.5004311 C63.7682932,20.1750964 63.5338666,19.7398985 63.1899635,19.4323587 C62.2673439,18.6358498 61.252269,17.8582962 60.2023782,17.2053059 C59.6402959,16.8432212 58.9161266,16.6087946 58.3184548,16.3000942 C58.1022098,16.1913914 57.7405119,16.1376203 57.6132407,15.9558043 C57.2871324,15.5573564 57.1053164,15.0331847 56.870503,14.5616236 C56.3459444,13.5670513 55.8380201,12.4630025 55.3861879,11.4111775 C55.0604665,10.7055767 54.8612425,9.99997577 54.4627947,9.34775916 C52.5970529,6.26926582 50.5699977,4.40545822 47.4559148,2.57646645 C46.7859035,2.1954265 45.9893946,2.03295261 45.1391145,1.83372868 C44.685735,1.81477339 44.233516,1.77957072 43.7809102,1.76177596 C43.4907783,1.63450474 43.2006463,1.29021484 42.9476513,1.12735411 C41.9151684,0.475911184 39.2548519,-0.936064272 38.4939325,0.928517016 C38.0049635,2.10606586 39.2181019,3.26427258 39.6347313,3.86194438 C39.9422712,4.27780017 40.3411059,4.74936128 40.5573509,5.21937503 C40.6842353,5.52730173 40.7205985,5.85379688 40.8478697,6.1791315 C41.1372279,6.97564039 41.4084046,7.8630573 41.7894446,8.60579507 C41.9878948,8.98606134 42.2049135,9.38489605 42.4582954,9.72725174 C42.6045219,9.9276362 42.8571301,10.0169968 42.9116749,10.3438788 C42.6590667,10.7055767 42.6393377,11.2487037 42.4946586,11.7016963 C41.8432157,13.7477068 42.0962107,16.2822994 43.0199908,17.7847961 C43.3089623,18.2374019 43.9979289,19.2335216 44.9213222,18.8524816 C45.7360127,18.527147 45.5549703,17.495051 45.7901706,16.5902261 C45.8443286,16.3716601 45.8079654,16.2281415 45.9162813,16.0834624 L45.9162813,16.1202124 C46.1696632,16.6262025 46.4238188,17.114011 46.6590191,17.6223222 C47.2211014,18.5085786 48.1978789,19.4323587 49.0133431,20.0474384 C49.4466068,20.3743204 49.7908967,20.9348553 50.3340237,21.1344661 L50.3340237,21.0799213 L50.2984342,21.0799213 C50.1893446,20.9174474 50.0268707,20.8443341 49.8818047,20.7182234 C49.5560832,20.3921151 49.1947723,19.9936673 48.9402298,19.6319694 C48.1800842,18.6184418 47.5092991,17.495051 46.9131747,16.3364574 C46.6226559,15.7739883 46.3696608,15.1589086 46.1340737,14.5979868 C46.0257578,14.3817418 46.0257578,14.0548598 45.8443286,13.9465439 C45.5719914,14.3446049 45.1747041,14.6888948 44.975867,15.1763165 C44.6315771,15.9558043 44.5956007,16.9151739 44.4679427,17.9112936 C44.3959899,17.9302489 44.4323531,17.9112936 44.3959899,17.94727 C43.8172734,17.8025908 43.6180495,17.2053059 43.4002571,16.6997026 C42.8571301,15.4126773 42.7658353,13.3488721 43.2373964,11.8641702 C43.3635071,11.4846776 43.9081814,10.2897209 43.6900022,9.9276362 C43.5805257,9.58218577 43.2188279,9.38489605 43.0199908,9.11217202 C42.7851774,8.76826896 42.5302481,8.33461842 42.3689348,7.95357846 C41.9341237,6.94005088 41.7155576,5.81704684 41.2463176,4.80351925 C41.028912,4.33195813 40.6478721,3.84298909 40.3411059,3.40933855 C39.9964291,2.92036952 39.6165497,2.57646645 39.3445994,1.99774994 C39.2548519,1.79813916 39.1279675,1.47203086 39.2722598,1.255399 C39.3078493,1.11033303 39.3813494,1.05578823 39.5264154,1.01903818 C39.7604552,0.82020109 40.4312402,1.07319614 40.6660537,1.18189891 C41.3364519,1.45268873 41.8977605,1.70761799 42.4582954,2.08711058 C42.7120641,2.26853975 42.9836276,2.61244281 43.3089623,2.70373766 L43.6900022,2.70373766 C44.2691056,2.82946151 44.9213222,2.73894034 45.464836,2.90257476 C46.4238188,3.21011462 47.2926672,3.66272045 48.0717682,4.15168948 C50.4427265,5.65457295 52.3982158,7.79149142 53.7192832,10.3438788 C53.9370756,10.7597346 54.0283704,11.1403877 54.2272075,11.5740383 C54.6074738,12.4630025 55.0786481,13.3682142 55.4581407,14.236289 C55.8380201,15.0873427 56.2008784,15.9558043 56.7447791,16.6629526 C57.0155689,17.0424451 58.1022098,17.2416691 58.5911788,17.440893 C58.9524898,17.6033669 59.5145721,17.7484329 59.8406804,17.94727 C60.4561469,18.3271494 61.070453,18.7623473 61.6507168,19.1793636 C61.9396883,19.3963823 62.8452868,19.8486013 62.8998316,20.2114596" id="Fill-9"></path>
            <path d="M61.6023615,40.5885036 L61.9996489,40.5885036 L61.9996489,38.7529168 L62.5195653,38.7529168 L62.5195653,38.3779745 L61.0623293,38.3779745 L61.0623293,38.7529168 L61.6023615,38.7529168 L61.6023615,40.5885036 Z M64.6255364,40.5885036 L65,40.5885036 L65,38.3779745 L64.4367572,38.3779745 L63.9783487,39.88473 L63.4793218,38.3779745 L62.9365816,38.3779745 L62.9365816,40.5885036 L63.2909294,40.5885036 L63.2909294,38.9061541 L63.3110452,38.9061541 L63.8336696,40.5885036 L64.1036857,40.5885036 L64.6255364,38.9061541 L64.6255364,40.5885036 L64.6255364,40.5885036 Z" id="Fill-10"></path>
        </g>
    </g>
</svg>